<svg xmlns="http://www.w3.org/2000/svg" viewBox="0 0 16 16"><defs><style>.a{fill:#f2f2f2;opacity:0;}.b{fill:#ffe232;fill-rule:evenodd;}</style></defs><title>i-new</title><rect class="a" width="16" height="16"/><path class="b" d="M7.5.5A23.93,23.93,0,0,1,9.2,2.77a24,24,0,0,1,2.71-.84,24.74,24.74,0,0,1,0,2.84,24.23,24.23,0,0,1,2.68.91A22.09,22.09,0,0,1,13,8a22.09,22.09,0,0,1,1.63,2.32,24.23,24.23,0,0,1-2.68.91,24.74,24.74,0,0,1,0,2.84,24,24,0,0,1-2.71-.84A23.93,23.93,0,0,1,7.5,15.5a23.93,23.93,0,0,1-1.7-2.27,24,24,0,0,1-2.71.84,24.74,24.74,0,0,1,0-2.84,24.23,24.23,0,0,1-2.68-.91A22.09,22.09,0,0,1,2,8,22.09,22.09,0,0,1,.37,5.68a24.23,24.23,0,0,1,2.68-.91,24.74,24.74,0,0,1,0-2.84,24,24,0,0,1,2.71.84A23.93,23.93,0,0,1,7.5.5Z"/></svg>