<svg xmlns="http://www.w3.org/2000/svg" viewBox="0 0 96 96"><defs><style>.a{fill:#f2f2f2;opacity:0;}.b{fill:#333;}</style></defs><title>i-review-black</title><rect class="a" width="96" height="96"/><path class="b" d="M62.26,25.84a8,8,0,0,1,2.07.27l-2.78,2.78L60.14,30.3l1.41,1.41,2.83,2.83L65.8,36l1.41-1.41L70,31.77a8,8,0,0,1-2.07,7.73,7.93,7.93,0,0,1-5.64,2.34,8.08,8.08,0,0,1-2.08-.27l-1.11-.3-.82.82-26.8,26.8a3,3,0,0,1-4.24-4.24L54,37.83l.82-.82-.3-1.11a8,8,0,0,1,2.06-7.72,7.94,7.94,0,0,1,5.65-2.34h0m0-2a10,10,0,0,0-9.65,12.58l-26.8,26.8a5,5,0,0,0,0,7.07h0a5,5,0,0,0,7.07,0l26.8-26.8a10.08,10.08,0,0,0,2.59.34,10,10,0,0,0,8.33-15.5L65.8,33.13,63,30.3l4.81-4.81a10,10,0,0,0-5.52-1.66Z"/><circle class="b" cx="30" cy="66" r="0.5"/><path class="b" d="M30,65a1,1,0,1,0,1,1,1,1,0,0,0-1-1Z"/></svg>