<svg xmlns="http://www.w3.org/2000/svg" viewBox="0 0 96 96"><defs><style>.a{fill:#f2f2f2;opacity:0;}.b{fill:none;stroke:#fff;stroke-miterlimit:10;stroke-width:2px;}.c{fill:#fff;}</style></defs><title>i-wtb-white</title><rect class="a" width="96" height="96"/><polyline class="b" points="20 24 26 24 39.42 65.3"/><path class="c" d="M41,66a4,4,0,1,1-4,4,4,4,0,0,1,4-4m0-2a6,6,0,1,0,6,6,6,6,0,0,0-6-6Z"/><path class="c" d="M65,66a4,4,0,1,1-4,4,4,4,0,0,1,4-4m0-2a6,6,0,1,0,6,6,6,6,0,0,0-6-6Z"/><rect class="c" x="42" y="64" width="24" height="2"/><polygon class="c" points="29.25 33 29.25 35 73.95 35 66.47 58 68.57 58 76 35 76 33 29.25 33"/><rect class="c" x="37" y="56" width="31" height="2"/></svg>